HIERARCHY
ROOT Hips
{
    OFFSET 0.000000 0.000000 0.000000
    CHANNELS 6 Xposition Yposition Zposition Zrotation Xrotation Yrotation
    JOINT Spine
    {
        OFFSET -0.000000 7.236184 0.000000
        CHANNELS 3 Zrotation Xrotation Yrotation
        JOINT Spine1
        {
            OFFSET -0.000000 20.420147 0.000000
            CHANNELS 3 Zrotation Xrotation Yrotation
            JOINT Neck
            {
                OFFSET -0.000000 20.336288 1.848754
                CHANNELS 3 Zrotation Xrotation Yrotation
                JOINT Head
                {
                    OFFSET -0.000000 12.354461 -1.764923
                    CHANNELS 3 Zrotation Xrotation Yrotation
                    End Site
                    {
                        OFFSET -0.000000 22.061537 0.000000
                    }
                }
            }
            JOINT LeftShoulder
            {
                OFFSET 3.573296 18.396038 -0.314103
                CHANNELS 3 Zrotation Xrotation Yrotation
                JOINT LeftArm
                {
                    OFFSET 10.880760 0.000000 0.000000
                    CHANNELS 3 Zrotation Xrotation Yrotation
                    JOINT LeftForeArm
                    {
                        OFFSET 27.185530 0.000000 0.000000
                        CHANNELS 3 Zrotation Xrotation Yrotation
                        JOINT LeftHand
                        {
                            OFFSET 27.825975 0.000000 0.000000
                            CHANNELS 3 Zrotation Xrotation Yrotation
                            End Site
                            {
                                OFFSET 13.236923 0.000000 0.000000
                            }
                        }
                    }
                }
            }
            JOINT RightShoulder
            {
                OFFSET -3.474926 18.396038 -0.314103
                CHANNELS 3 Zrotation Xrotation Yrotation
                JOINT RightArm
                {
                    OFFSET -10.880760 0.000000 0.000000
                    CHANNELS 3 Zrotation Xrotation Yrotation
                    JOINT RightForeArm
                    {
                        OFFSET -27.185530 0.000000 0.000000
                        CHANNELS 3 Zrotation Xrotation Yrotation
                        JOINT RightHand
                        {
                            OFFSET -27.825975 0.000000 0.000000
                            CHANNELS 3 Zrotation Xrotation Yrotation
                            End Site
                            {
                                OFFSET -13.236923 0.000000 0.000000
                            }
                        }
                    }
                }
            }
        }
    }
    JOINT LeftUpLeg
    {
        OFFSET 8.824615 0.000000 0.000000
        CHANNELS 3 Zrotation Xrotation Yrotation
        JOINT LeftLeg
        {
            OFFSET -0.000000 -35.111282 0.000000
            CHANNELS 3 Zrotation Xrotation Yrotation
            JOINT LeftFoot
            {
                OFFSET -0.000000 -42.324711 0.000000
                CHANNELS 3 Zrotation Xrotation Yrotation
                JOINT LeftToeBase
                {
                    OFFSET -0.000000 -5.735999 13.236923
                    CHANNELS 3 Zrotation Xrotation Yrotation
                    End Site
                    {
                        OFFSET -0.000000 0.000000 3.529846
                    }
                }
            }
        }
    }
    JOINT RightUpLeg
    {
        OFFSET -8.824615 0.000000 0.000000
        CHANNELS 3 Zrotation Xrotation Yrotation
        JOINT RightLeg
        {
            OFFSET -0.000000 -35.111282 0.000000
            CHANNELS 3 Zrotation Xrotation Yrotation
            JOINT RightFoot
            {
                OFFSET -0.000000 -42.324711 0.000000
                CHANNELS 3 Zrotation Xrotation Yrotation
                JOINT RightToeBase
                {
                    OFFSET -0.000000 -5.735999 13.236923
                    CHANNELS 3 Zrotation Xrotation Yrotation
                    End Site
                    {
                        OFFSET -0.000000 0.000000 3.529846
                    }
                }
            }
        }
    }
}
MOTION
Frames:    8
Frame Time:    0.008333
-3.658539    80.427673    111.214539    8.040897    -12.888881    -167.304443    0.972534    -7.808193    2.895866    12.017568    0.145610    2.814239    4.811753    6.817284    -9.648484    18.869530    -26.869997    -3.465158    2.933925    13.762974    0.968375    -56.607449    30.979576    -20.915979    -0.670647    -5.973507    -9.643970    18.734341    -5.670060    2.191447    6.791779    17.373363    -9.398816    51.710587    30.485634    22.214655    -7.881926    -7.221104    32.290848    -12.219302    -4.877492    -0.668513    11.938074    -34.856457    -1.064957    4.391934    38.311996    0.627282    -8.887136    -15.021998    -15.891865    0.626858    0.554462    -0.694159    -24.467661    -13.900566    -7.414238    8.202176    43.789013    -3.371126    16.992792    1.652860    -9.533614    1.293172    -10.483703    -1.421009    
-4.035538    80.481583    111.189865    8.039028    -12.715083    -167.196747    1.037371    -7.763906    2.887186    12.049262    0.110847    2.805173    4.806544    6.900043    -9.714282    18.794090    -26.840961    -3.562940    2.959997    13.681426    0.990873    -56.571152    30.822784    -20.638269    -0.670342    -5.827920    -9.471621    18.882225    -5.502780    2.298326    6.777363    17.385735    -9.403306    51.733143    30.681284    22.252649    -8.001827    -7.064004    32.539352    -12.002133    -4.667975    -0.663375    11.502623    -34.642117    -1.410054    4.450016    38.309792    0.567785    -8.652857    -15.139893    -15.761993    0.638559    0.585200    -0.707078    -24.865099    -13.984240    -7.319633    8.738115    47.216873    -3.323720    16.658459    1.804898    -9.618082    1.320013    -10.895609    -1.451508    
-4.393893    80.528343    111.167892    8.033403    -12.545268    -167.080368    1.097918    -7.719987    2.875436    12.076021    0.074390    2.793551    4.791840    6.986719    -9.783459    18.729143    -26.817316    -3.658412    2.982179    13.604577    1.021215    -56.522034    30.650820    -20.388012    -0.666519    -5.683151    -9.321417    18.997013    -5.339778    2.385943    6.760355    17.396509    -9.412376    51.757439    30.871786    22.282406    -8.131277    -6.902283    32.816628    -11.801516    -4.447720    -0.661434    11.077033    -34.443275    -1.746241    4.514262    38.319180    0.502491    -8.439904    -15.253183    -15.648127    0.644449    0.615745    -0.713560    -25.273394    -14.056303    -7.265217    9.343896    50.809315    -3.323748    16.331985    1.937916    -9.661896    1.333165    -11.265864    -1.466891    
-4.727533    80.567596    111.149010    8.026279    -12.385103    -166.960220    1.155045    -7.679780    2.863101    12.097740    0.037901    2.781639    4.768379    7.073144    -9.854720    18.677526    -26.800667    -3.749215    2.999012    13.537289    1.059961    -56.459496    30.464251    -20.175879    -0.660204    -5.546537    -9.196300    19.072811    -5.189296    2.451300    6.741633    17.405315    -9.425486    51.783939    31.051180    22.301018    -8.266074    -6.743357    33.115440    -11.624228    -4.225802    -0.662772    10.672248    -34.265991    -2.059515    4.586748    38.340347    0.426441    -8.249241    -15.360703    -15.550371    0.644136    0.643102    -0.713179    -25.683348    -14.108889    -7.242353    10.026136    54.465378    -3.400257    16.015688    2.043577    -9.662887    1.328149    -11.578062    -1.462152    
-5.050943    80.601608    111.132408    8.019298    -12.230428    -166.834534    1.213186    -7.644268    2.851937    12.115467    0.001363    2.770812    4.735923    7.160929    -9.930639    18.638739    -26.792765    -3.837877    3.010145    13.477946    1.109561    -56.381519    30.252279    -19.996441    -0.651761    -5.415365    -9.090182    19.113142    -5.048051    2.497906    6.721133    17.412249    -9.442853    51.813641    31.224926    22.307920    -8.409443    -6.585592    33.445423    -11.462965    -3.998694    -0.667495    10.273847    -34.104645    -2.357093    4.673275    38.373722    0.331128    -8.069352    -15.467916    -15.460774    0.637228    0.667142    -0.705500    -26.110487    -14.138721    -7.239803    10.845248    58.303986    -3.596325    15.694191    2.117296    -9.624770    1.300890    -11.829156    -1.432761    
-5.355733    80.629799    111.118607    8.014275    -12.087358    -166.709900    1.272614    -7.616435    2.844440    12.129057    -0.032941    2.763277    4.695649    7.245642    -10.009067    18.615437    -26.795694    -3.921160    3.014223    13.429053    1.169044    -56.291672    30.016239    -19.857691    -0.641698    -5.295661    -9.005381    19.119507    -4.922284    2.525171    6.699404    17.417007    -9.463612    51.845798    31.386852    22.301571    -8.555563    -6.438712    33.795776    -11.319444    -3.778702    -0.675169    9.894074    -33.965328    -2.627308    4.774643    38.418705    0.213276    -7.900630    -15.573248    -15.375794    0.623457    0.685472    -0.690231    -26.542667    -14.139176    -7.248859    11.831712    62.199005    -3.962227    15.373129    2.147968    -9.557370    1.249764    -12.004309    -1.376869    
-5.644678    80.652977    111.107513    8.012294    -11.956191    -166.589401    1.335256    -7.597018    2.842448    12.138771    -0.064128    2.760650    4.648510    7.326650    -10.089643    18.608601    -26.812286    -3.998004    3.010860    13.389135    1.238291    -56.192833    29.752937    -19.758307    -0.630102    -5.188395    -8.938828    19.099525    -4.812404    2.535522    6.676540    17.419271    -9.486511    51.879921    31.537073    22.281487    -8.702726    -6.306873    34.164234    -11.188154    -3.570539    -0.685933    9.530916    -33.847092    -2.871069    4.893415    38.474789    0.068793    -7.735829    -15.678686    -15.287199    0.603261    0.697745    -0.667858    -26.980970    -14.106710    -7.259030    13.072663    66.143669    -4.583776    15.051592    2.129157    -9.473009    1.175279    -12.100705    -1.295025    
-5.914834    80.671371    111.099365    8.013913    -11.839367    -166.478516    1.401014    -7.585951    2.847623    12.145076    -0.091491    2.764548    4.596451    7.401244    -10.170499    18.618778    -26.843138    -4.066424    3.000071    13.357616    1.315296    -56.090393    29.465139    -19.698732    -0.617282    -5.096107    -8.887903    19.062483    -4.720273    2.531654    6.653330    17.418762    -9.510523    51.914074    31.673424    22.248310    -8.847031    -6.195309    34.541225    -11.066952    -3.381223    -0.702029    9.188592    -33.750851    -3.087014    5.028298    38.540546    -0.099294    -7.572699    -15.783648    -15.190542    0.577094    0.703718    -0.638882    -27.418112    -14.040118    -7.259238    14.692742    70.053757    -5.598130    14.737895    2.058843    -9.384943    1.081331    -12.123080    -1.191552    
